<svg height="960" viewBox="0 0 960 960" width="960" xmlns="http://www.w3.org/2000/svg"><path d="m279.697265 5.52463663c2.533154 0 5.065784.07274952 7.594722.21815845l31.120379 1.78936022c69.506555 3.9964895 123.935803 61.187874 123.935803 130.5420107l.000018 545.157307c0 1.656854 1.343145 3 3 3 .132629 0 .265112-.008796.396577-.026328l292.68056-39.032681c3.721994-.491595 7.472451-.738184 11.226933-.738184 47.06873 0 85.361865 37.970846 85.361865 84.980083v6.507386c0 45.57342-33.279174 84.295033-78.378968 91.477127l-326.474414 51.989761-.41599.891476c-20.978957 44.068326-65.805814 74.074283-117.004214 74.808454l-1.922892.013781c-1.634796 0-3.26945-.0303-4.903112-.090883l-31.120378-1.154076c-70.613739-2.618657-126.627414-60.276955-126.627414-130.669287v-688.903295c0-72.2928816 58.963548-130.76017037 131.530525-130.76017037zm-4.638653 40.11466827-1.379504.0783851c-47.745558 3.0729088-85.512368 42.4466772-85.512368 90.567117v688.903295c0 44.856696 32.880379 82.331851 76.387633 89.518573-22.869164-16.560297-35.604899-43.901322-35.604899-82.163499v-706.340994c0-30.6137911 15.754178-59.5159295 41.137266-77.2984577 1.631771-1.1431638 3.289763-2.2315396 4.971872-3.2644194zm6.503596 19.6447011c-20.153113 14.1185859-32.612734 36.976629-32.612734 60.918176v706.340994c0 53.281322 27.370571 78.55559 77.247923 81.105646.127913.006539 1.089717.0117 2.682535.015059l.449898.000871.480273.000779c.082525.000123.166279.000241.251241.000355l.524121.00064c.08972.000098.18061.000193.272651.000283l1.15854.000891 3.821685.00198c27.041176-7.603066 48.987734-27.222678 59.598253-52.670895-5.767573-1.424338-11.24617-3.575095-16.335393-6.35012l-75.008094-23.19326c-26.357177-8.149367-44.330723-32.375193-44.330723-59.808249v-10.410289c0-33.156118 24.754631-61.150347 57.832783-65.473899l84.670398-11.06703.106658-.013001c-.015982-.481856-.024036-.965719-.024036-1.451463l-.000018-545.157307c0-34.314444-19.260589-64.3792003-47.885874-79.7961885-.467425-.118065-.930497-.2735825-1.387364-.4655958-24.716018-10.3877231-50.675651-7.1261207-71.512723 7.4716233zm468.643161 621.162721c-1.965697 0-3.929278.12891-5.878103.385898l-62.004526 8.175012-231.290278 30.84647c-1.811338.241566-3.636158.367411-5.46336.376798l-31.94659 4.211274c-28.851744 3.804638-50.41727 28.400675-50.41727 57.502193v6.284829c0 17.847629 9.586736 33.456155 23.891667 41.957036l18.205184 5.627774c.787913.243615 1.524058.575722 2.200894.982029 1.47253.136157 2.965139.204652 4.473746.204652 2.564693 0 5.12539-.202299 7.658268-.605016l326.639099-51.934252c26.759781-4.254693 46.808585-26.393025 48.739915-53.051637l.000107-5.995424c0-24.415146-19.617554-44.286931-44.075275-44.962339-.244648-.003343-.488835-.005297-.733478-.005297zm-345.283106 18.042432c0 .029579-.001388.035597-.02111.036758l-.026462.000234c-.005734 0-.011438.000371-.017031.001102l-84.670398 11.067029c-23.149974 3.025868-40.424878 22.561511-40.424878 45.642585v10.410289c0 18.639918 12.238104 35.13517 30.238571 40.700729l40.370772 12.482457c-4.586902-9.216378-7.166485-19.607512-7.166485-30.601141v-6.284829c0-37.939468 27.254902-70.184827 64.270238-76.783188-1.587831-1.768386-2.553217-4.107467-2.553217-6.672025zm28.558171 51.759106c13.019352 2.059394 21.567663 16.377595 19.093188 31.980598-2.474476 15.603002-15.034704 26.582266-28.054056 24.522872s-21.567663-16.377595-19.093188-31.980598c2.474476-15.603002 15.034704-26.582266 28.054056-24.522872zm-9.558818 8.722204-.885245 6.845719-.025838.260392c-.024102.347792-.006828.697417.051686 1.041926l2.506519 14.752858-.007371.026215c-.314253 1.321848-.476834 2.00572-.62671 2.636144l-.074522.313465c-.112125.471634-.230131.968005-.412643 1.73571-.202869.853332-.202869.853332-.331967 1.396362-.050717.213333-.050717.213333-.082992.349091-.012679.053333-.012679.053333-.020748.087272-.00317.013333-.00317.013333-.006916.029091-.580157 2.440329.98776 4.875083 3.502041 5.438176 2.448115.548275 4.890786-.880056 5.553202-3.208308l.051502-.198001c.002017-.008484.002017-.008484.005187-.021818l.006147-.025858c.00333-.014007.006148-.025859.014601-.061414.032274-.135758.032274-.135758.082992-.349091.129098-.54303.129098-.54303.331967-1.396362.516393-2.172118.516393-2.172118 1.327869-5.585448l.051536-.248217c.088665-.498547.090851-1.008593.005868-1.508948l-2.545863-14.986607.80122-6.192904c.321339-2.484956-1.493665-4.752245-4.053925-5.064133s-4.896258 1.449732-5.217597 3.934688zm-137.812351-351.522988.309873.007253c9.928506.336476 17.280785 10.592831 16.421774 22.90821-.85901 12.315379-9.60402 22.026198-19.532526 21.689722s-17.280785-10.592831-16.421775-22.90821c.859011-12.315379 9.604021-22.026198 19.532527-21.689722zm23.196467 20.168322c.85901-12.315379 9.60402-22.026199 19.532527-21.689722 9.928506.336476 17.280785 10.592831 16.421774 22.90821-.85901 12.315379-9.604021 22.026198-19.532527 21.689722s-17.280785-10.592831-16.421774-22.90821zm42.419121-1.528654c.85901-12.315379 9.60402-22.026198 19.532526-21.689722 9.928506.336477 17.280785 10.592832 16.421775 22.908211-.859011 12.315379-9.604021 22.026198-19.532527 21.689722-9.928506-.336477-17.280785-10.592832-16.421774-22.908211zm-65.615588-69.639668.309873.007253c9.928506.336476 17.280785 10.592831 16.421774 22.90821-.85901 12.315379-9.60402 22.026198-19.532526 21.689722s-17.280785-10.592831-16.421775-22.90821c.859011-12.315379 9.604021-22.026198 19.532527-21.689722zm23.196467 20.168322c.85901-12.315379 9.60402-22.026199 19.532527-21.689722 9.928506.336476 17.280785 10.592831 16.421774 22.90821-.85901 12.315379-9.604021 22.026198-19.532527 21.689722s-17.280785-10.592831-16.421774-22.90821zm42.419121-1.528654c.85901-12.315379 9.60402-22.026198 19.532526-21.689722 9.928506.336477 17.280785 10.592832 16.421775 22.908211-.859011 12.315379-9.604021 22.026198-19.532527 21.689722-9.928506-.336477-17.280785-10.592832-16.421774-22.908211zm-65.615588-69.639668.309873.007253c9.928506.336476 17.280785 10.592831 16.421774 22.90821-.85901 12.315379-9.60402 22.026198-19.532526 21.689722s-17.280785-10.592831-16.421775-22.90821c.859011-12.315379 9.604021-22.026198 19.532527-21.689722zm23.196467 20.168322c.85901-12.315379 9.60402-22.026199 19.532527-21.689722 9.928506.336476 17.280785 10.592831 16.421774 22.90821-.85901 12.315379-9.604021 22.026198-19.532527 21.689722s-17.280785-10.592831-16.421774-22.90821zm42.419121-1.528654c.85901-12.315379 9.60402-22.026198 19.532526-21.689722 9.928506.336477 17.280785 10.592832 16.421775 22.908211-.859011 12.315379-9.604021 22.026198-19.532527 21.689722-9.928506-.336477-17.280785-10.592832-16.421774-22.908211zm-65.615588-69.639668.309873.007253c9.928506.336476 17.280785 10.592831 16.421774 22.90821-.85901 12.315379-9.60402 22.026198-19.532526 21.689722s-17.280785-10.592831-16.421775-22.90821c.859011-12.315379 9.604021-22.026198 19.532527-21.689722zm23.196467 20.168322c.85901-12.315379 9.60402-22.026199 19.532527-21.689722 9.928506.336476 17.280785 10.592831 16.421774 22.90821-.85901 12.315379-9.604021 22.026198-19.532527 21.689722s-17.280785-10.592831-16.421774-22.90821zm42.419121-1.528654c.85901-12.315379 9.60402-22.026198 19.532526-21.689722 9.928506.336477 17.280785 10.592832 16.421775 22.908211-.859011 12.315379-9.604021 22.026198-19.532527 21.689722-9.928506-.336477-17.280785-10.592832-16.421774-22.908211zm-20.493117-203.9044528c34.976235 2.4457767 60.010787 38.2708918 57.15018 79.1794728-2.860606 40.90858-32.637416 72.900911-67.613652 70.455135-34.976235-2.445777-60.010787-38.270892-57.15018-79.179473 2.860606-40.90858 32.637416-72.9009114 67.613652-70.4551348zm-47.662371 71.8502648c-2.1477 30.713543 15.683891 56.231029 38.594029 57.833062s44.119541-21.185441 46.267241-51.898984-15.683891-56.2310288-38.594029-57.8330618c-22.910138-1.6020329-44.119541 21.1854408-46.267241 51.8989838z"/></svg>