<?xml version="1.0" encoding="UTF-8"?>
<svg width="960px" height="960px" viewBox="0 0 960 960" version="1.1" xmlns="http://www.w3.org/2000/svg" xmlns:xlink="http://www.w3.org/1999/xlink">
    <title>se.nimly/drivers/code/ assets/learn</title>
    <style type="text/css">
#pair {
	animation: pair 3s infinite;
}

@keyframes pair {
	0%, 100% {
		fill: rgba(255,255,255,0);
	}
	50% {
		fill: #0074CC;
	}
}
</style>
    <g id="se.nimly/drivers/code" stroke="none" stroke-width="1" fill="none" fill-rule="evenodd">
        <path d="M627,491.46875 C655.97769,491.46875 679.46875,514.95981 679.46875,543.9375 C679.46875,572.91519 655.97769,596.40625 627,596.40625 C598.02231,596.40625 574.53125,572.91519 574.53125,543.9375 C574.53125,514.95981 598.02231,491.46875 627,491.46875 Z M627,501.46875 C603.545157,501.46875 584.53125,520.482657 584.53125,543.9375 C584.53125,567.392343 603.545157,586.40625 627,586.40625 C650.454843,586.40625 669.46875,567.392343 669.46875,543.9375 C669.46875,520.482657 650.454843,501.46875 627,501.46875 Z" id="Oval" fill="#000000" fill-rule="nonzero"></path>
        <path d="M648.228467,512.763996 C655.948409,508.306886 665.819861,510.951933 670.276971,518.671875 C674.734082,526.391817 672.089034,536.263268 664.369092,540.720379 L604.802783,575.111004 C597.082841,579.568114 587.211389,576.923067 582.754279,569.203125 C578.297168,561.483183 580.942216,551.611732 588.662158,547.154621 L648.228467,512.763996 Z M661.616717,523.671875 C659.92103,520.734859 656.165483,519.728563 653.228467,521.42425 L593.662158,555.814875 C590.725142,557.510562 589.718846,561.266109 591.414533,564.203125 C593.11022,567.140141 596.865767,568.146437 599.802783,566.45075 L659.369092,532.060125 C662.306108,530.364438 663.312404,526.608891 661.616717,523.671875 Z" id="Rectangle" fill="#000000" fill-rule="nonzero"></path>
        <path d="M640.5625,724.78125 C674.976743,724.78125 702.875,752.679507 702.875,787.09375 C702.875,821.507993 674.976743,849.40625 640.5625,849.40625 L215.28125,849.40625 C180.867007,849.40625 152.96875,821.507993 152.96875,787.09375 C152.96875,752.679507 180.867007,724.78125 215.28125,724.78125 L640.5625,724.78125 Z M640.5625,734.78125 L215.28125,734.78125 C186.389854,734.78125 162.96875,758.202354 162.96875,787.09375 C162.96875,815.985146 186.389854,839.40625 215.28125,839.40625 L640.5625,839.40625 C669.453896,839.40625 692.875,815.985146 692.875,787.09375 C692.875,758.202354 669.453896,734.78125 640.5625,734.78125 Z" id="Rectangle" fill="#000000" fill-rule="nonzero"></path>
        <path d="M627,1 C687.199038,1 736,49.8009623 736,110 L736,852 C736,912.199038 687.199038,961 627,961 C569.810914,961 522.908591,916.957132 518.361332,860.939695 L518.292,860 L215.5,860 C175.859762,860 143.649945,828.186586 143.009713,788.69892 L143,787.5 C143,747.459356 175.459356,715 215.5,715 L518,715 L518,110 C518,50.4029526 565.829823,1.97715905 625.197486,1.01460289 L627,1 Z M627,21 C577.846657,21 538,60.8466573 538,110 L538,735 L215.5,735 C186.505051,735 163,758.505051 163,787.5 C163,816.494949 186.505051,840 215.5,840 L538,840 L538,852 C538,901.153343 577.846657,941 627,941 C676.153343,941 716,901.153343 716,852 L716,110 C716,60.8466573 676.153343,21 627,21 Z" id="Combined-Shape" fill="#000000" fill-rule="nonzero"></path>
        <path d="M642.245635,739.46875 C654.870257,739.46875 666.708669,744.561327 675.4462,753.447792 C684.167698,762.317953 689.15625,774.313252 689.15625,787.09375 C689.15625,799.874248 684.167698,811.869547 675.4462,820.739708 C666.708669,829.626173 654.870257,834.71875 642.245635,834.71875 L214.566865,834.71875 C201.942243,834.71875 190.103831,829.626173 181.3663,820.739708 C172.644802,811.869547 167.65625,799.874248 167.65625,787.09375 C167.65625,774.313252 172.644802,762.317953 181.3663,753.447792 C190.103831,744.561327 201.942243,739.46875 214.566865,739.46875 L642.245635,739.46875 Z M642.245635,749.46875 L214.566865,749.46875 C204.658021,749.46875 195.377418,753.461024 188.496869,760.458854 C181.600289,767.47299 177.65625,776.95669 177.65625,787.09375 C177.65625,797.23081 181.600289,806.71451 188.496869,813.728646 C195.377418,820.726476 204.658021,824.71875 214.566865,824.71875 L642.245635,824.71875 C652.154479,824.71875 661.435082,820.726476 668.315631,813.728646 C675.212211,806.71451 679.15625,797.23081 679.15625,787.09375 C679.15625,776.95669 675.212211,767.47299 668.315631,760.458854 C661.435082,753.461024 652.154479,749.46875 642.245635,749.46875 Z" id="Rectangle" fill="#000000" fill-rule="nonzero"></path>
        <path d="M627.5,31 C649.453319,31 669.328319,39.8886307 683.714989,54.2596022 C698.101659,68.6305737 707,88.483886 707,110.413249 L707,338 L548,338 L548,110.413249 C548,88.483886 556.898341,68.6305737 571.285011,54.2596022 C585.671681,39.8886307 605.546681,31 627.5,31 Z" id="pair" fill="#0074CC"></path>
        <path d="M627.5,26 C650.210344,26 671.5073,34.9980237 687.248592,50.7221388 C702.99093,66.4472978 712,87.7238901 712,110.413249 L712,338 C712,340.761424 709.761424,343 707,343 L548,343 C545.238576,343 543,340.761424 543,338 L543,110.413249 C543,87.7238901 552.00907,66.4472978 567.751408,50.7221388 C583.4927,34.9980237 604.789656,26 627.5,26 Z M627.5,36 C607.466746,36 588.703165,43.9276652 574.818614,57.7970656 C560.935108,71.665422 553,90.4056529 553,110.413249 L553,333 L702,333 L702,110.413249 C702,90.6330119 694.244211,72.0915 680.65238,58.2717325 L680.181386,57.7970656 C666.296835,43.9276652 647.533254,36 627.5,36 Z" id="Combined-Shape" fill="#000000" fill-rule="nonzero"></path>
        <path d="M716.125,349.087712 C718.886424,349.087712 721.125,351.326288 721.125,354.087712 C721.125,356.849136 718.886424,359.087712 716.125,359.087712 L537.875,359.087712 C535.113576,359.087712 532.875,356.849136 532.875,354.087712 C532.875,351.326288 535.113576,349.087712 537.875,349.087712 L716.125,349.087712 Z" id="Path-5" fill="#000000" fill-rule="nonzero"></path>
    </g>
</svg>