<?xml version="1.0" encoding="UTF-8"?>
<svg width="960px" height="960px" viewBox="0 0 960 960" version="1.1" xmlns="http://www.w3.org/2000/svg" xmlns:xlink="http://www.w3.org/1999/xlink">
    <title>se.nimly/drivers/touch-pro/ assets/learn</title>
        <style type="text/css">
#pair {
	animation: pair 3s infinite;
}

@keyframes pair {
	0%, 100% {
		fill: rgba(255,255,255,0);
	}
	50% {
		fill: #0074CC;
	}
}
</style>
    <g id="se.nimly/drivers/touch-pro" stroke="none" stroke-width="1" fill="none" fill-rule="evenodd">
        <path d="M646.717548,893.105935 C657.652076,893.105935 666.435096,902.240276 666.435096,913.412185 C666.435096,924.584095 657.652076,933.718435 646.717548,933.718435 C635.78302,933.718435 627,924.584095 627,913.412185 C627,902.240276 635.78302,893.105935 646.717548,893.105935 Z M646.717548,903.105935 C641.395521,903.105935 637,907.677278 637,913.412185 C637,919.147093 641.395521,923.718435 646.717548,923.718435 C652.039575,923.718435 656.435096,919.147093 656.435096,913.412185 C656.435096,907.677278 652.039575,903.105935 646.717548,903.105935 Z" id="Oval" fill="#000000" fill-rule="nonzero"></path>
        <path d="M649.5,905.5 L649.5,910 L654,910 L654,916 L649.499,916 L649.5,920.5 L643.5,920.5 L643.499,916 L639,916 L639,910 L643.5,910 L643.5,905.5 L649.5,905.5 Z" id="Combined-Shape" fill="#000000"></path>
        <path d="M662.130322,734.666035 C694.756911,734.666035 721.205986,761.115111 721.205986,793.741699 C721.205986,826.368288 694.756911,852.817363 662.130322,852.817363 L263.16335,852.817363 C230.536761,852.817363 204.087686,826.368288 204.087686,793.741699 C204.087686,761.115111 230.536761,734.666035 263.16335,734.666035 L662.130322,734.666035 Z M662.130322,744.666035 L263.16335,744.666035 C236.059609,744.666035 214.087686,766.637958 214.087686,793.741699 C214.087686,820.84544 236.059609,842.817363 263.16335,842.817363 L662.130322,842.817363 C689.234063,842.817363 711.205986,820.84544 711.205986,793.741699 C711.205986,766.637958 689.234063,744.666035 662.130322,744.666035 Z" id="Rectangle" fill="#000000" fill-rule="nonzero"></path>
        <path d="M649,-1 C706.437614,-1 753,45.562386 753,103 L753,854 C753,911.437614 706.437614,958 649,958 C594.434267,958 549.683427,915.977447 545.344757,862.529617 L545.306,862 L263,862 C225.273429,862 194.618569,831.722406 194.009244,794.141041 L194,793 C194,754.892352 224.892352,724 263,724 L545,724 L545,103 C545,46.1367622 590.635795,-0.0676647569 647.28017,-0.986066971 L649,-1 Z M649,19 C602.608081,19 565,56.608081 565,103 L565,744 L263,744 C235.938047,744 214,765.938047 214,793 C214,820.061953 235.938047,842 263,842 L565,842 L565,854 C565,900.391919 602.608081,938 649,938 C695.391919,938 733,900.391919 733,854 L733,103 C733,56.608081 695.391919,19 649,19 Z" id="Combined-Shape" fill="#000000" fill-rule="nonzero"></path>
        <path d="M649.133333,19 C695.451614,19 733,56.5483856 733,102.866667 L733,339 L565.266,339 L565.266667,102.866667 C565.266667,56.5483856 602.815052,19 649.133333,19 Z" id="pair" fill="#0074CC"></path>
        <path d="M663.709314,748.754121 C675.636806,748.754121 686.821848,753.565635 695.076195,761.960681 C703.314509,770.339421 708.026709,781.670213 708.026709,793.741699 C708.026709,805.813185 703.314509,817.143977 695.076195,825.522718 C686.821848,833.917763 675.636806,838.729277 663.709314,838.729277 L262.493167,838.729277 C250.565675,838.729277 239.380632,833.917763 231.126286,825.522718 C222.887971,817.143977 218.175771,805.813185 218.175771,793.741699 C218.175771,781.670213 222.887971,770.339421 231.126286,761.960681 C239.380632,753.565635 250.565675,748.754121 262.493167,748.754121 L663.709314,748.754121 Z M663.709314,758.754121 L262.493167,758.754121 C253.281452,758.754121 244.654218,762.465332 238.256854,768.971743 C231.843458,775.494458 228.175771,784.313651 228.175771,793.741699 C228.175771,803.169747 231.843458,811.988941 238.256854,818.511656 C244.654218,825.018066 253.281452,828.729277 262.493167,828.729277 L663.709314,828.729277 C672.921028,828.729277 681.548262,825.018066 687.945626,818.511656 C694.359022,811.988941 698.026709,803.169747 698.026709,793.741699 C698.026709,784.313651 694.359022,775.494458 687.945626,768.971743 C681.548262,762.465332 672.921028,758.754121 663.709314,758.754121 Z" id="Rectangle" fill="#000000" fill-rule="nonzero"></path>
        <path d="M740.613354,333.7125 C743.37477,333.706082 745.618555,335.939438 745.625,338.700854 C745.631418,341.46227 743.398062,343.706055 740.636646,343.712486 L556.920757,344.14041 C554.159341,344.146828 551.915557,341.913472 551.909111,339.152056 C551.902693,336.390639 554.136049,334.146855 556.897465,334.140423 L740.613354,333.7125 Z" id="Path-5" fill="#000000" fill-rule="nonzero"></path>
        <path d="M740.625,598.56177 C743.386424,598.56177 745.625,600.800346 745.625,603.56177 C745.625,606.323194 743.386424,608.56177 740.625,608.56177 L556.909111,608.56177 C554.147688,608.56177 551.909111,606.323194 551.909111,603.56177 C551.909111,600.800346 554.147688,598.56177 556.909111,598.56177 L740.625,598.56177 Z" id="Path-6" fill="#000000" fill-rule="nonzero"></path>
    </g>
</svg>