<svg height="960" viewBox="0 0 960 960" width="960" xmlns="http://www.w3.org/2000/svg"><path d="m268 3.96658351c2.703178 0 5.405789.07829112 8.104434.23477489l34 1.97152585c74.047395 4.29371625 131.895566 65.59344685 131.895566 139.76522375l.000019 517.517048c0 1.656855 1.343146 3 3 3 .133743 0 .267335-.008943.399884-.02677l324.216006-43.605337c3.919972-.522138 7.870223-.784067 11.824816-.784067 49.462222 0 89.559275 40.097053 89.559275 89.559275v7.16987c0 48.125287-34.943866 89.128936-82.46027 96.7601l-358.59973 57.591357-.500389 1.119556c-21.936745 48.152481-70.147215 81.138881-125.390388 81.936266l-2.049223.014783c-1.744525 0-3.488898-.032608-5.232204-.097806l-34-1.271566c-75.231314-2.813577-134.767796-64.618287-134.767796-139.902195v-670.952038c0-77.3198655 62.680135-140.00000049 140-140.00000049zm.698304 61.24016189c-21.360836 13.06092-35.216557 32.8987754-35.216557 48.8723056v720.462528c0 51.506782 27.957377 77.103601 79.184924 81.085739 37.812533-4.009669 69.332431-29.091665 82.59446-63.279779-3.760972-.923978-7.407736-2.136763-10.916141-3.613428l-89.441287-27.889861c-28.408836-8.858273-47.757875-35.159432-47.757875-64.917304v-11.470108c0-35.998904 26.677773-66.424024 62.367943-71.128581l92.486229-12.192673v-515.197475c0-38.239637-21.526222-71.6893804-53.392394-88.4955229-.251853-.0732781-.501461-.159165-.749565-.2556264-26.557346-10.3253721-55.152033-6.6595412-79.159737 8.0197857zm-3.081939-21.209836-.917251.0231254c-53.700541 1.7415925-96.699114 45.8226432-96.699114 99.9465492v670.952038c0 47.439243 33.096524 87.385355 77.789014 97.518648-.518395-.423327-1.031217-.850883-1.538596-1.2843-20.182612-17.240557-30.768671-42.928342-30.768671-76.611391v-720.462528c0-23.8032211 17.980825-49.5471713 44.783442-65.9354268 2.411081-1.4742372 4.863059-2.8572124 7.351176-4.1467148zm516.066653 618.1107236c-2.181576 0-4.360764.144268-6.5233.431859l-67.346718 8.955092-257.081311 34.57686c-1.899867.255522-3.814695.383712-5.731668.383712l-.059021-.000572-35.351865 4.701342c-28.823478 3.833171-50.354023 28.416574-50.354023 57.493817v12.158211c0 21.967162 13.198717 40.851598 32.098463 49.155621l11.337712 3.535788c3.311299.639039 6.731032.973694 10.228928.973694 2.845606 0 5.686704-.226333 8.496419-.676857l360.952838-57.877108c8.957054-1.436222 17.159725-4.876125 24.180209-9.817843 14.930962-10.589078 24.470319-27.989029 24.470319-47.333122v-7.16987c0-22.395284-14.854704-41.321066-35.248544-47.461779-4.458863-1.320257-9.180901-2.028845-14.068438-2.028845zm-376.922712 18.847012c-.042711 0-.085375.002799-.127719.008381l-92.505094 12.193707c-25.74084 3.39307-44.981665 25.336596-44.981665 51.300105v11.470108c0 21.005557 13.658145 39.571081 33.711441 45.823979l47.646881 14.857367c-5.904859-10.5987-9.269038-22.806646-9.269038-35.800338v-12.158211c0-39.103879 28.954871-72.164317 67.717479-77.319272l4.124587-.548631c-3.175278-1.675582-5.339581-5.009993-5.339581-8.849904 0-.539743-.437549-.977291-.977291-.977291zm31.31454 58.482888c14.211325 2.250853 23.542268 17.900196 20.841245 34.953786s-16.411191 29.05358-30.622516 26.802727-23.542268-17.900196-20.841245-34.953786 16.411191-29.05358 30.622516-26.802727zm-9.851713 9.083022-.947368 7.548131-.02765.28711c-.025794.383477-.007307.768976.055312 1.148834l2.682415 16.266591-.007888.028905c-.644585 2.7935-.69289 3.002843-1.192041 5.166061-.217106.94089-.217106.94089-.355264 1.539638-.054276.235222-.054276.235222-.088815.384909-.013569.058805-.013569.058805-.022204.096227-.003393.014702-.003393.014702-.007402.032076-.620869 2.690721 1.057077 5.375296 3.747798 5.996166 2.619913.604531 5.233999-.970355 5.942901-3.5375l.055116-.218317c.002159-.009355.002159-.009355.005551-.024057.008635-.037421.008635-.037421.022204-.096227.034539-.149687.034539-.149687.088816-.384909.138158-.598748.138158-.598748.355263-1.539637.196095-.849836.322608-1.398117.443028-1.919995l.065462-.283696c.196861-.853154.408318-1.769567.912563-3.954858l.055152-.273686c.094887-.549701.097227-1.112081.00628-1.663776l-2.72452-16.524324.857446-6.828334c.343889-2.739927-1.598484-5.239854-4.338411-5.583743s-5.239854 1.598483-5.583744 4.338411zm-106.588457-684.3353561c19.316193.3957493 37.971914 9.2960997 52.861536 23.4458737 14.059125 13.3605444 22.127605 31.3168674 22.05021 50.3600164l-1.655693 400.760061c-.07825 19.047824-8.293442 36.9965-22.456246 50.353636-14.051578 13.252237-32.944187 21.035308-53.031556 21.446857-20.031191.410398-38.866571-6.663522-52.808783-19.487801-14.075628-12.946998-22.123047-30.801467-22.045847-50.013778l1.655692-407.36842c.078055-19.217741 8.273093-37.0645782 22.451781-50.0075975 14.046118-12.8220021 32.93941-19.8994159 52.978906-19.4888476zm-39.495075 34.2599784c-10.115811 9.2342207-15.880829 21.7890547-15.935777 35.3177117l-1.655526 407.368278c-.05425 13.501051 5.586117 26.015097 15.585515 35.21271 10.134246 9.321649 23.967815 14.517061 38.859441 14.211962 15.110343-.30958 29.263335-6.1401 39.718995-16.000977 10.276254-9.691678 16.123523-22.466877 16.17865-35.886092l1.655522-400.759916c.054426-13.390619-5.667585-26.124899-15.82757-35.780046-11.512129-10.9401048-25.604255-17.6632359-39.493849-17.9478053-14.918674-.3056532-28.835556 4.9076006-39.085401 14.2641746zm42.28272 17.5809017c20.803582 1.454728 35.379234 22.176399 33.750731 45.465083-1.628503 23.288683-18.946206 41.780153-39.749788 40.325425s-35.379235-22.176399-33.750731-45.465082c1.628503-23.288684 18.946205-41.780154 39.749788-40.325426zm-19.798507 41.720555c-.914176 13.073317 6.423734 23.505355 15.19458 24.118672 8.770845.613317 17.489202-8.695957 18.403377-21.769274s-6.423734-23.505355-15.19458-24.118672c-8.770845-.613317-17.489202 8.695957-18.403377 21.769274z"/></svg>