<?xml version="1.0" encoding="UTF-8"?>
<svg width="200" height="200" fill="none" version="1.1" viewBox="0 0 200 200" xmlns="http://www.w3.org/2000/svg">
 <g transform="matrix(1.0281 0 0 1.0281 11.013 1)" clip-rule="evenodd" fill-rule="evenodd" stroke-width=".97271">
  <path d="m68.78 36.28c-37.986 0-68.78 30.794-68.78 68.779v87.538h37.516v-87.538c0-17.266 13.997-31.263 31.263-31.263 17.266 0 31.263 13.997 31.263 31.263v87.538h37.516v-87.538c0-37.986-30.794-68.779-68.78-68.779z" fill="#fff"/>
  <path d="m173.12 24.01c0 13.806-10.204 24.01-24.01 24.01-13.506 0-24.01-10.204-24.01-24.01 0-13.506 10.504-24.01 24.01-24.01 13.806 0 24.01 10.505 24.01 24.01z" fill="#fff"/>
 </g>
</svg>
