<?xml version="1.0" encoding="UTF-8"?>
<svg width="100" height="100" version="1.1" viewBox="0 0 100 100" xmlns="http://www.w3.org/2000/svg">
 <g transform="matrix(1.6905 0 0 1.6905 -34.524 -34.524)" stroke-width=".093455">
  <path d="m78.972 27.928c0 3.8895-2.8122 6.7687-6.6226 6.7687-3.7251 0-6.6164-2.8731-6.6164-6.7687 0-3.8044 2.8974-6.7687 6.6164-6.7687 3.8104 0.0061 6.6226 2.9643 6.6226 6.7687"/>
  <path d="m30.874 50.504c0-10.579 8.5643-19.155 19.125-19.155 10.56 0 19.125 8.5765 19.125 19.155v24.384h-10.433v-24.384c0-4.8086-3.8895-8.7104-8.6921-8.7104-4.8027 0-8.6922 3.9017-8.6922 8.7104v24.384h-10.433z" fill-rule="evenodd"/>
 </g>
</svg>
