<svg height="960" viewBox="0 0 960 960" width="960" xmlns="http://www.w3.org/2000/svg"><path d="m452 14.0834852c2.176822 0 4.353441.0420581 6.529002.126165l49.293998 1.9071094 1.339374-.0464445c1.07341-.0312352 2.147954-.0520746 3.223522-.062497l1.614104-.0078181c90.574699 0 164 73.425301 164 164v602c0 84.043023-63.400528 153.879271-145.765093 162.995185l-2.464907.252575-.350476.06918c-2.804245.526117-5.708928.758141-8.679897.663335l-.686769-.027695-.768858-.03782-1.643134.045431c-.606145.013265-1.212636.023217-1.819454.029853l-1.821412.010958c-7.0321 0-14.018812-.445915-20.928612-1.328215l-.929388-.123027-48.62376-2.443095c-89.026638-4.4737-159.10446-77.270055-160.497114-166.090641l-.021126-2.696384v-590.236155c0-93.3361226 75.663877-168.9999998 169-168.9999998zm61.80646 42.1712436c-68.590198 0-124.193539 55.6033422-124.193539 124.1935392v601.358192c0 62.402124 46.023063 114.054986 105.977722 122.867117l.311859.015252c5.37981.786691 10.871787 1.227933 16.452688 1.300485.366612.00658.733995.009192 1.101753.010205l-1.101753-.010205c.508172.006607 1.017081.010156 1.526709.010631l-.075439.000055c68.590198 0 124.19354-55.603342 124.19354-124.19354v-601.358192c0-68.590197-55.603342-124.1935392-124.19354-124.1935392zm-69.968058-1.9168411-.320187.0199897c-67.290961 4.3676123-120.518215 60.3306646-120.518215 128.7256076v590.236155c0 64.274185 47.126252 117.993485 109.376927 127.507559-37.900193-25.984321-62.764006-69.598902-62.764006-119.020739v-601.358192c0-54.246 29.954731-101.4956986 74.225481-126.1103803zm69.968058 14.9168411c29.883048 0 57.91394 11.8560675 78.625706 32.5678342 20.711767 20.711766 32.567834 48.742658 32.567834 78.625705v601.358192c0 29.883048-11.856067 57.91394-32.567834 78.625706-20.711766 20.711767-48.742658 32.567834-78.625706 32.567834-29.883047 0-57.913939-11.856067-78.625706-32.567834-20.711766-20.711766-32.567833-48.742658-32.567833-78.625706v-601.358192c0-29.883047 11.856067-57.913939 32.567833-78.625705 20.711767-20.7117667 48.742659-32.5678342 78.625706-32.5678342zm0 20c-24.524196 0-47.485349 9.7117488-64.48357 26.7099692-16.99822 16.998221-26.709969 39.959374-26.709969 64.48357v601.358192c0 24.524197 9.711749 47.48535 26.709969 64.483571 16.998221 16.99822 39.959374 26.709969 64.48357 26.709969 24.524197 0 47.48535-9.711749 64.483571-26.709969 16.99822-16.998221 26.709969-39.959374 26.709969-64.483571v-601.358192c0-24.524196-9.711749-47.485349-26.709969-64.48357-16.998221-16.9982204-39.959374-26.7099692-64.483571-26.7099692zm-47.099455 451.5560762c12.9188.437817 22.485458 13.783208 21.367728 29.807766-1.117729 16.024558-12.496585 28.660108-25.415385 28.222291s-22.485458-13.783209-21.367729-29.807767c1.11773-16.024558 12.496586-28.660107 25.415386-28.22229zm52.147365-1.989057c12.9188.437817 22.485458 13.783208 21.367729 29.807766-1.11773 16.024558-12.496586 28.660108-25.415386 28.222291-12.9188-.437818-22.485458-13.783209-21.367728-29.807767 1.117729-16.024558 12.496585-28.660108 25.415385-28.22229zm51.131479-1.989058c12.9188.437817 22.485458 13.783209 21.367728 29.807767-1.117729 16.024558-12.496585 28.660107-25.415385 28.22229-12.918801-.437817-22.485459-13.783208-21.367729-29.807766s12.496585-28.660108 25.415386-28.222291zm-104.096005 24.083072-.035512.018452c-.402518.222337-.895404.617173-1.418552 1.198098-1.711856 1.900915-2.955589 4.893957-3.192636 8.292423-.226705 3.250203.516136 6.020563 1.723564 7.704912.185649.258979.354323.453869.495783.592297l.013353.012818.036177-.01731c.352203-.194544.773594-.521159 1.223907-.988947l.194644-.20915c1.711857-1.900916 2.95559-4.893958 3.192637-8.292423.226705-3.250203-.516137-6.020563-1.723564-7.704913-.18565-.258979-.354323-.453868-.495784-.592297zm52.147365-1.989057-.035512.018452c-.402517.222337-.895403.617173-1.418551 1.198098-1.711857 1.900915-2.95559 4.893957-3.192637 8.292423-.226705 3.250202.516137 6.020562 1.723565 7.704912.185649.258979.354322.453868.495783.592297l.013352.012818.036177-.01731c.352203-.194545.773594-.521159 1.223907-.988947l.194645-.209151c1.711856-1.900915 2.955589-4.893957 3.192636-8.292423.226705-3.250202-.516136-6.020562-1.723564-7.704912-.185649-.258979-.354323-.453868-.495783-.592297zm51.131478-1.989057-.035511.018452c-.402518.222336-.895404.617172-1.418552 1.198097-1.711856 1.900916-2.95559 4.893958-3.192636 8.292424-.226705 3.250202.516136 6.020562 1.723564 7.704912.185649.258979.354322.453868.495783.592297l.013352.012818.036177-.01731c.352203-.194545.773595-.521159 1.223908-.988947l.194644-.209151c1.711856-1.900915 2.95559-4.893957 3.192636-8.292423.226705-3.250203-.516136-6.020563-1.723564-7.704912-.185649-.258979-.354322-.453869-.495783-.592297zm-102.461682-82.48716c12.9188.437817 22.485458 13.783209 21.367728 29.807766-1.117729 16.024558-12.496585 28.660108-25.415385 28.222291s-22.485458-13.783209-21.367729-29.807767c1.11773-16.024557 12.496586-28.660107 25.415386-28.22229zm52.147365-1.989057c12.9188.437817 22.485458 13.783209 21.367729 29.807766-1.11773 16.024558-12.496586 28.660108-25.415386 28.222291s-22.485458-13.783209-21.367728-29.807767c1.117729-16.024557 12.496585-28.660107 25.415385-28.22229zm51.131479-1.989057c12.9188.437817 22.485458 13.783208 21.367728 29.807766-1.117729 16.024558-12.496585 28.660108-25.415385 28.222291-12.918801-.437818-22.485459-13.783209-21.367729-29.807767s12.496585-28.660108 25.415386-28.22229zm-104.096005 24.083071-.035512.018452c-.402518.222337-.895404.617173-1.418552 1.198098-1.711856 1.900916-2.955589 4.893957-3.192636 8.292423-.226705 3.250203.516136 6.020563 1.723564 7.704913.185649.258978.354323.453868.495783.592296l.013353.012818.036177-.017309c.352203-.194545.773594-.521159 1.223907-.988948l.194644-.20915c1.711857-1.900916 2.95559-4.893957 3.192637-8.292423.226705-3.250203-.516137-6.020563-1.723564-7.704913-.18565-.258978-.354323-.453868-.495784-.592296zm52.147365-1.989057-.035512.018452c-.402517.222337-.895403.617173-1.418551 1.198098-1.711857 1.900915-2.95559 4.893957-3.192637 8.292423-.226705 3.250203.516137 6.020563 1.723565 7.704912.185649.258979.354322.453869.495783.592297l.013352.012818.036177-.01731c.352203-.194544.773594-.521159 1.223907-.988947l.194645-.20915c1.711856-1.900916 2.955589-4.893958 3.192636-8.292423.226705-3.250203-.516136-6.020563-1.723564-7.704913-.185649-.258979-.354323-.453868-.495783-.592297zm51.131478-1.989057-.035511.018452c-.402518.222337-.895404.617173-1.418552 1.198098-1.711856 1.900915-2.95559 4.893957-3.192636 8.292423-.226705 3.250203.516136 6.020563 1.723564 7.704912.185649.258979.354322.453869.495783.592297l.013352.012818.036177-.01731c.352203-.194544.773595-.521159 1.223908-.988947l.194644-.209151c1.711856-1.900915 2.95559-4.893957 3.192636-8.292423.226705-3.250202-.516136-6.020562-1.723564-7.704912-.185649-.258979-.354322-.453868-.495783-.592297zm-102.461682-79.4395c12.9188.437817 22.485458 13.783209 21.367728 29.807767-1.117729 16.024557-12.496585 28.660107-25.415385 28.22229s-22.485458-13.783209-21.367729-29.807766c1.11773-16.024558 12.496586-28.660108 25.415386-28.222291zm52.147365-1.989057c12.9188.437817 22.485458 13.783209 21.367729 29.807767-1.11773 16.024557-12.496586 28.660107-25.415386 28.22229s-22.485458-13.783209-21.367728-29.807766c1.117729-16.024558 12.496585-28.660108 25.415385-28.222291zm51.131479-1.989057c12.9188.437817 22.485458 13.783209 21.367728 29.807766-1.117729 16.024558-12.496585 28.660108-25.415385 28.222291-12.918801-.437817-22.485459-13.783209-21.367729-29.807767 1.11773-16.024557 12.496585-28.660107 25.415386-28.22229zm-104.096005 24.083072-.035512.018452c-.402518.222336-.895404.617172-1.418552 1.198097-1.711856 1.900916-2.955589 4.893958-3.192636 8.292423-.226705 3.250203.516136 6.020563 1.723564 7.704913.185649.258979.354323.453868.495783.592297l.013353.012818.036177-.01731c.352203-.194545.773594-.521159 1.223907-.988947l.194644-.209151c1.711857-1.900915 2.95559-4.893957 3.192637-8.292423.226705-3.250203-.516137-6.020563-1.723564-7.704912-.18565-.258979-.354323-.453869-.495784-.592297zm52.147365-1.989057-.035512.018451c-.402517.222337-.895403.617173-1.418551 1.198098-1.711857 1.900916-2.95559 4.893957-3.192637 8.292423-.226705 3.250203.516137 6.020563 1.723565 7.704913.185649.258978.354322.453868.495783.592296l.013352.012819.036177-.01731c.352203-.194545.773594-.521159 1.223907-.988948l.194645-.20915c1.711856-1.900916 2.955589-4.893957 3.192636-8.292423.226705-3.250203-.516136-6.020563-1.723564-7.704913-.185649-.258978-.354323-.453868-.495783-.592296zm51.131478-1.989058-.035511.018452c-.402518.222337-.895404.617173-1.418552 1.198098-1.711856 1.900915-2.95559 4.893957-3.192636 8.292423-.226705 3.250203.516136 6.020563 1.723564 7.704913.185649.258978.354322.453868.495783.592296l.013352.012818.036177-.017309c.352203-.194545.773595-.52116 1.223908-.988948l.194644-.20915c1.711856-1.900916 2.95559-4.893958 3.192636-8.292423.226705-3.250203-.516136-6.020563-1.723564-7.704913-.185649-.258979-.354322-.453868-.495783-.592296zm-102.461682-78.423613c12.9188.437817 22.485458 13.783209 21.367728 29.807767-1.117729 16.024557-12.496585 28.660107-25.415385 28.22229s-22.485458-13.783209-21.367729-29.807766c1.11773-16.024558 12.496586-28.660108 25.415386-28.222291zm52.147365-1.989057c12.9188.437817 22.485458 13.783209 21.367729 29.807766-1.11773 16.024558-12.496586 28.660108-25.415386 28.222291s-22.485458-13.783209-21.367728-29.807767c1.117729-16.024557 12.496585-28.660107 25.415385-28.22229zm51.131479-1.989057c12.9188.437817 22.485458 13.783208 21.367728 29.807766-1.117729 16.024558-12.496585 28.660108-25.415385 28.222291-12.918801-.437817-22.485459-13.783209-21.367729-29.807767 1.11773-16.024557 12.496585-28.660107 25.415386-28.22229zm-104.096005 24.083072-.035512.018451c-.402518.222337-.895404.617173-1.418552 1.198098-1.711856 1.900916-2.955589 4.893958-3.192636 8.292423-.226705 3.250203.516136 6.020563 1.723564 7.704913.185649.258978.354323.453868.495783.592296l.013353.012819.036177-.01731c.352203-.194545.773594-.521159 1.223907-.988947l.194644-.209151c1.711857-1.900915 2.95559-4.893957 3.192637-8.292423.226705-3.250203-.516137-6.020563-1.723564-7.704913-.18565-.258978-.354323-.453868-.495784-.592296zm52.147365-1.989058-.035512.018452c-.402517.222337-.895403.617173-1.418551 1.198098-1.711857 1.900916-2.95559 4.893957-3.192637 8.292423-.226705 3.250203.516137 6.020563 1.723565 7.704913.185649.258978.354322.453868.495783.592296l.013352.012818.036177-.017309c.352203-.194545.773594-.521159 1.223907-.988948l.194645-.20915c1.711856-1.900916 2.955589-4.893957 3.192636-8.292423.226705-3.250203-.516136-6.020563-1.723564-7.704913-.185649-.258978-.354323-.453868-.495783-.592296zm51.131478-1.989057-.035511.018452c-.402518.222337-.895404.617173-1.418552 1.198098-1.711856 1.900915-2.95559 4.893957-3.192636 8.292423-.226705 3.250203.516136 6.020563 1.723564 7.704912.185649.258979.354322.453869.495783.592297l.013352.012818.036177-.01731c.352203-.194544.773595-.521159 1.223908-.988947l.194644-.20915c1.711856-1.900916 2.95559-4.893958 3.192636-8.292423.226705-3.250203-.516136-6.020563-1.723564-7.704913-.185649-.258979-.354322-.453868-.495783-.592297zm-52.137853-252.719034c44.45992.77605 78.793604 44.80694 77.874818 97.444151s-36.768211 95.443049-81.22813 94.666999c-44.45992-.776051-78.793604-44.806941-77.874818-97.444152.918786-52.63721 36.768211-95.443049 81.22813-94.666998zm-61.231176 95.016047c-.740424 42.418835 25.860712 76.533195 58.226912 77.098149s60.141704-32.600258 60.882128-75.019093c.740423-42.418835-25.860712-76.533195-58.226912-77.098149-32.3662-.564955-60.141705 32.600258-60.882128 75.019093z"/></svg>