<?xml version="1.0" encoding="UTF-8"?>
<svg width="960px" height="960px" viewBox="0 0 960 960" version="1.1" xmlns="http://www.w3.org/2000/svg" xmlns:xlink="http://www.w3.org/1999/xlink">
    <title>se.nimly/drivers/touch/ assets/learn</title>
        <style type="text/css">
#pair {
	animation: pair 3s infinite;
}

@keyframes pair {
	0%, 100% {
		fill: rgba(255,255,255,0);
	}
	50% {
		fill: #0074CC;
	}
}
</style>
    <g id="se.nimly/drivers/touch" stroke="none" stroke-width="1" fill="none" fill-rule="evenodd">
        <path d="M622,4 C692.140163,4 749,60.8598368 749,131 L749,829 C749,899.140163 692.140163,956 622,956 C551.859837,956 495,899.140163 495,829 L124.5,829 C104.82582,829 86.4040066,820.837193 72.9097831,806.700388 C59.5893205,792.745618 52,773.948012 52,754 C52,734.051988 59.5893205,715.254382 72.9097831,701.299612 C86.4040066,687.162807 104.82582,679 124.5,679 L495,679 L495,131 C495,61.5612384 550.728326,5.13852477 619.899823,4.01701437 L622,4 Z M622,24 C562.905532,24 515,71.9055318 515,131 L515,699 L124.5,699 C110.002525,699 96.8775253,705.156085 87.376894,715.109127 C77.8762627,725.062169 72,738.812169 72,754 C72,769.187831 77.8762627,782.937831 87.376894,792.890873 C96.8775253,802.843915 110.002525,809 124.5,809 L515,809 L515,829 C515,888.094468 562.905532,936 622,936 C681.094468,936 729,888.094468 729,829 L729,131 C729,71.9055318 681.094468,24 622,24 Z" id="Combined-Shape" fill="#000000" fill-rule="nonzero"></path>
        <path d="M622.496108,461.211099 C655.959612,461.211099 683.087143,488.338629 683.087143,521.802134 C683.087143,555.265639 655.959612,582.393169 622.496108,582.393169 C589.032603,582.393169 561.905072,555.265639 561.905072,521.802134 C561.905072,488.338629 589.032603,461.211099 622.496108,461.211099 Z M622.496108,471.211099 C594.55545,471.211099 571.905072,493.861477 571.905072,521.802134 C571.905072,549.742791 594.55545,572.393169 622.496108,572.393169 C650.436765,572.393169 673.087143,549.742791 673.087143,521.802134 C673.087143,493.861477 650.436765,471.211099 622.496108,471.211099 Z" id="Oval" fill="#000000" fill-rule="nonzero"></path>
        <path d="M622,34 C648.78581,34 673.03581,44.8711866 690.589358,62.4475173 C708.142905,80.023848 719,104.305323 719,131.125899 L719,437 L525,437 L525,131.125899 C525,104.305323 535.857095,80.023848 553.410642,62.4475173 C570.96419,44.8711866 595.21419,34 622,34 Z" id="pair" fill="#0074CC"></path>
        <path d="M622,29 C649.417384,29 675.125152,39.8875821 694.127184,58.9142771 C713.127975,77.9397303 724,103.677446 724,131.125899 L724,437 C724,439.761424 721.761424,442 719,442 L525,442 C522.238576,442 520,439.761424 520,437 L520,131.125899 C520,103.677446 530.872025,77.9397303 549.872816,58.9142771 C568.874848,39.8875821 594.582616,29 622,29 Z M622,39 C597.264818,39 574.093692,48.8132805 556.948468,65.9807575 C539.802005,83.1494762 530,106.354097 530,131.125899 L530,432 L714,432 L714,131.125899 C714,106.601815 704.393055,83.6137253 687.56372,66.4976253 L687.051532,65.9807575 C669.906308,48.8132805 646.735182,39 622,39 Z" id="Combined-Shape" fill="#000000" fill-rule="nonzero"></path>
        <path d="M620.170698,870.829253 C634.272028,870.829253 645.622249,882.633483 645.622249,897.098867 C645.622249,911.564251 634.272028,923.36848 620.170698,923.36848 C606.069367,923.36848 594.719146,911.564251 594.719146,897.098867 C594.719146,882.633483 606.069367,870.829253 620.170698,870.829253 Z M620.170698,880.829253 C611.681868,880.829253 604.719146,888.070484 604.719146,897.098867 C604.719146,906.127249 611.681868,913.36848 620.170698,913.36848 C628.659527,913.36848 635.622249,906.127249 635.622249,897.098867 C635.622249,888.070484 628.659527,880.829253 620.170698,880.829253 Z" id="Oval" fill="#000000" fill-rule="nonzero"></path>
        <path d="M624,887 L624,893 L630,893 L630,901 L623.999,901 L624,907 L616,907 L615.999,901 L610,901 L610,893 L616,893 L616,887 L624,887 Z" id="Combined-Shape" fill="#000000"></path>
        <path d="M649.727658,689.210047 C666.632471,689.210047 682.466399,696.23593 694.109983,708.450977 C705.664151,720.572221 712.257158,736.924878 712.257158,754.317681 C712.257158,771.710485 705.664151,788.063142 694.109983,800.184386 C682.466399,812.399433 666.632471,819.425316 649.727658,819.425316 L124.432659,819.425316 C107.527846,819.425316 91.6939173,812.399433 80.0503342,800.184386 C68.4961661,788.063142 61.9031585,771.710485 61.9031585,754.317681 C61.9031585,736.924878 68.4961661,720.572221 80.0503342,708.450977 C91.6939173,696.23593 107.527846,689.210047 124.432659,689.210047 L649.727658,689.210047 Z M649.727658,699.210047 L124.432659,699.210047 C109.927038,699.210047 96.7946626,705.378179 87.2886929,715.350699 C77.7827231,725.32322 71.9031585,739.100128 71.9031585,754.317681 C71.9031585,769.535235 77.7827231,783.312143 87.2886929,793.284664 C96.7946626,803.257184 109.927038,809.425316 124.432659,809.425316 L649.727658,809.425316 C664.233279,809.425316 677.365654,803.257184 686.871624,793.284664 C696.377594,783.312143 702.257158,769.535235 702.257158,754.317681 C702.257158,739.100128 696.377594,725.32322 686.871624,715.350699 C677.365654,705.378179 664.233279,699.210047 649.727658,699.210047 Z" id="Rectangle" fill="#000000" fill-rule="nonzero"></path>
        <path d="M649.727658,706.612458 C661.834703,706.612458 673.159937,711.694611 681.513493,720.458157 C690.02716,729.389672 694.854747,741.476231 694.854747,754.317681 C694.854747,767.159132 690.02716,779.245691 681.513493,788.177206 C673.159937,796.940752 661.834703,802.022905 649.727658,802.022905 L124.432659,802.022905 C112.325614,802.022905 101.000379,796.940752 92.6468235,788.177206 C84.1331571,779.245691 79.3055696,767.159132 79.3055696,754.317681 C79.3055696,741.476231 84.1331571,729.389672 92.6468235,720.458157 C101.000379,711.694611 112.325614,706.612458 124.432659,706.612458 L649.727658,706.612458 Z M649.727658,716.612458 L124.432659,716.612458 C114.824186,716.612458 106.167429,720.767301 99.8851821,727.357879 C93.308356,734.257494 89.3055696,743.806821 89.3055696,754.317681 C89.3055696,764.828542 93.308356,774.377869 99.8851821,781.277484 C106.167429,787.868062 114.824186,792.022905 124.432659,792.022905 L649.727658,792.022905 C659.33613,792.022905 667.992888,787.868062 674.275135,781.277484 C680.851961,774.377869 684.854747,764.828542 684.854747,754.317681 C684.854747,743.806821 680.851961,734.257494 674.275135,727.357879 C667.992888,720.767301 659.33613,716.612458 649.727658,716.612458 Z" id="Rectangle" fill="#000000" fill-rule="nonzero"></path>
        <polygon id="Path-3" fill="#000000" fill-rule="nonzero" points="624.996108 496.955696 624.996108 515.94722 619.996108 515.94722 619.996108 496.955696"></polygon>
        <path d="M612.708063,507.194526 L615.447459,511.377313 C612.052559,513.600705 610.010698,517.247651 610.010698,521.318734 C610.010698,527.94726 615.384181,533.320743 622.012707,533.320743 C628.641234,533.320743 634.014717,527.94726 634.014717,521.318734 C634.014717,517.303349 632.033543,513.553187 628.842623,511.340239 L631.692021,507.231599 C636.224191,510.374721 639.014717,515.656905 639.014717,521.318734 C639.014717,530.708684 631.402658,538.320743 622.012707,538.320743 C612.622757,538.320743 605.010698,530.708684 605.010698,521.318734 C605.010698,515.53259 607.925294,510.326863 612.708063,507.194526 Z" id="Path" fill="#000000" fill-rule="nonzero"></path>
    </g>
</svg>