<svg height="960" viewBox="0 0 960 960" width="960" xmlns="http://www.w3.org/2000/svg"><path d="m286 14.0834852c2.176822 0 4.353441.0420581 6.529002.126165l49.292998 1.906835 1.340374-.0461701c1.07341-.0312352 2.147954-.0520746 3.223522-.062497l1.614104-.0078181c90.574699 0 164 73.425301 164 164v480.779485l269.88663-35.890902c2.932667-.390009 5.882528-.634293 8.838706-.732057l1.267288-.032925c.125922-.002379.251855-.004164.377794-.005353l.934773-.00883c.125939-.00119.251882-.001785.377827-.001785 49.420495 0 89.483722 40.063227 89.483722 89.483722v7.059269c0 48.134518-34.956933 89.143163-82.484143 96.76393l-312.747597 50.148931-.321803.528815c-26.569386 43.05157-72.014368 72.092257-123.531161 77.126056l-.301036.027129-.361476.071455c-2.804245.526117-5.708928.758141-8.679897.663335l-.686769-.027695-.777858-.038095-1.634134.045706c-.606145.013265-1.212636.023217-1.819454.029853l-1.821412.010958c-7.0321 0-14.018812-.445915-20.928612-1.328215l-.929388-.123302-48.62376-2.44282c-89.026638-4.4737-159.10446-77.270055-160.497114-166.090641l-.021126-2.696384v-590.236155c0-93.3361226 75.663877-168.9999998 169-168.9999998zm61.80646 42.1712436c-68.590198 0-124.193539 55.6033422-124.193539 124.1935392v601.358192c0 62.402124 46.023063 114.054986 105.977722 122.867117l.311859.015252c5.37981.786691 10.871787 1.227933 16.452688 1.300485.366612.00658.733995.009192 1.101753.010205l-1.101753-.010205c.513494.006676 1.02774.01023 1.542722.010645l-.091452.000041c41.878723 0 78.916093-20.728298 101.412109-52.484893l-12.655476 2.02884c-1.753111.281103-3.515122.498623-5.28257.652283l-.450824.036063c-.788679.849812-1.564326 1.584001-2.874447 2.776046-.056561.051461-.056561.051461-.112253.102133-.737718.671263-1.077581.988442-1.410833 1.321694-20.711766 20.711767-48.742658 32.567834-78.625706 32.567834-29.883047 0-57.913939-11.856067-78.625706-32.567834-20.711766-20.711766-32.567833-48.742658-32.567833-78.625706v-601.358192c0-29.883047 11.856067-57.913939 32.567833-78.625705 20.711767-20.7117667 48.742659-32.5678342 78.625706-32.5678342 29.883048 0 57.91394 11.8560675 78.625706 32.5678342 20.711767 20.711766 32.567834 48.742658 32.567834 78.625705l-.001 507.555217 13-1.729.001-505.826217c0-68.590197-55.603342-124.1935392-124.19354-124.1935392zm-69.968058-1.9168411-.320187.0199897c-67.290961 4.3676123-120.518215 60.3306646-120.518215 128.7256076v590.236155c0 64.274185 47.126252 117.993485 109.376927 127.507559-37.900193-25.984321-62.764006-69.598902-62.764006-119.020739v-601.358192c0-54.246 29.954731-101.4956986 74.225481-126.1103803zm69.968058 34.9168411c-24.524196 0-47.485349 9.7117488-64.48357 26.7099692-16.99822 16.998221-26.709969 39.959374-26.709969 64.48357v601.358192c0 24.524197 9.711749 47.48535 26.709969 64.483571 16.998221 16.99822 39.959374 26.709969 64.48357 26.709969 20.805057 0 40.485199-6.989493 56.354069-19.487722-4.285139-1.253922-8.407915-2.887569-12.330107-4.861364l-76.900942-25.875404c-26.623878-8.957711-44.562593-35.268684-44.562593-64.848564v-11.470108c0-35.827732 24.798603-66.344606 58.335803-71.114701l85.730534-12.193707c.907064-.129014 1.821743-.19386 2.737677-.19386 6.878738 0 11.545983 4.52571 13.611165 10.887971 1.283232 3.953287 1.728666 8.955876 1.546322 15.300815-.02395.833371-.151988 1.659374-.380351 2.458955l7.050963-.938826.001-510.215217c0-24.524196-9.711749-47.485349-26.709969-64.48357-16.998221-16.9982204-39.959374-26.7099692-64.483571-26.7099692zm445.876558 574.8529042c-2.181576 0-4.360764.144268-6.5233.431859l-267.635718 35.591993-24.281 3.229-42.576 5.662-31.077865 4.133441c-28.823478 3.833171-50.354023 28.416574-50.354023 57.493817v12.158211c0 20.491181 11.48465 38.299978 28.368308 47.340748l.080443.042987c5.112688 2.726514 10.718573 4.649753 16.649181 5.601241l.714588.109703c2.563123.375808 5.185126.570424 7.852583.570424 2.845606 0 5.686704-.226333 8.496419-.676857l360.952838-57.877108c28.128471-4.51027 48.817268-28.780692 48.817268-57.268468v-7.059269c0-27.055814-21.71374-49.040112-48.665418-49.477092zm-381.395131 19.546937-80.768883 11.488283c-23.160995 3.294257-40.796409 24.744121-41.146801 50.531244l-.005316.782741v11.470108c0 21.183549 12.651209 39.739259 30.940364 45.892719l38.147129 12.835671-.514666-1.012203c-4.930901-9.886226-7.704602-21.036786-7.704602-32.835179v-12.158211c0-35.58453 23.977528-66.164486 57.503861-75.265268l.484026-.12972 3.141888-8.311185.000954-.060464c.006254-1.207147-.021765-2.284433-.077781-3.223096zm38.786959 55.782963c14.211325 2.250853 23.542268 17.900196 20.841245 34.953786s-16.411191 29.05358-30.622516 26.802727-23.542268-17.900196-20.841245-34.953786 16.411191-29.05358 30.622516-26.802727zm-9.851713 9.083022-.947368 7.548131-.02765.28711c-.025794.383477-.007307.768976.055312 1.148834l2.682415 16.266591-.007888.028905c-.34915 1.513146-.52335 2.268093-.689016 2.986055l-.076462.331367c-.1156.500989-.239382 1.037433-.426563 1.848639-.217106.94089-.217106.94089-.355264 1.539638-.054276.235222-.054276.235222-.088815.384909-.013569.058805-.013569.058805-.022204.096227-.003393.014702-.003393.014702-.007402.032076-.620869 2.690721 1.057077 5.375296 3.747798 5.996166 2.619913.604531 5.233999-.970355 5.942901-3.5375l.055116-.218317c.002159-.009355.002159-.009355.005551-.024057.008635-.037421.008635-.037421.022204-.096227.034539-.149687.034539-.149687.088816-.384909.138158-.598748.138158-.598748.355263-1.539637.196095-.849836.322608-1.398117.443028-1.919995l.065462-.283696c.196861-.853154.408318-1.769567.912563-3.954858l.055152-.273686c.094887-.549701.097227-1.112081.00628-1.663776l-2.72452-16.524324.857446-6.828334c.343889-2.739927-1.598484-5.239854-4.338411-5.583743s-5.239854 1.598483-5.583744 4.338411z"/></svg>