<?xml version="1.0" encoding="UTF-8"?>
<svg width="960px" height="960px" viewBox="0 0 960 960" version="1.1" xmlns="http://www.w3.org/2000/svg" xmlns:xlink="http://www.w3.org/1999/xlink">
    <title>se.nimly/drivers/indoor/ assets/learn</title>
        <style type="text/css">
#pair {
	animation: pair 3s infinite;
}

@keyframes pair {
	0%, 100% {
		fill: rgba(255,255,255,0);
	}
	50% {
		fill: #0074CC;
	}
}
</style>
    <g id="se.nimly/drivers/indoor" stroke="none" stroke-width="1" fill="none" fill-rule="evenodd">
        <path d="M674.5,2 C765.350841,2 839,75.6491587 839,166.5 L839,793.5 C839,884.350841 765.350841,958 674.5,958 C591.502701,958 522.771601,896.500756 511.591312,816.473687 L511.397,815.001 L133,815 C79.9640955,815 36.8695819,772.435845 36.0129952,719.604072 L36,718 C36,664.428379 79.4283793,621 133,621 L510,621 L510,166.5 C510,76.5576671 582.18354,3.47470334 671.779692,2.0220383 L674.5,2 Z M674.5,22 C594.694854,22 530,86.6948536 530,166.5 L530,641 L133,641 C90.4740743,641 56,675.474074 56,718 C56,760.525926 90.4740743,795 133,795 L530.007639,795.001437 C530.813005,874.115005 595.195932,938 674.5,938 C754.305146,938 819,873.305146 819,793.5 L819,166.5 C819,86.6948536 754.305146,22 674.5,22 Z" id="Combined-Shape" fill="#000000" fill-rule="nonzero"></path>
        <path d="M702.985263,654.343158 C720.13657,654.343158 736.223088,661.147181 748.110585,673.034678 C759.998082,684.922175 766.802105,701.008693 766.802105,718.16 C766.802105,735.311307 759.998082,751.397825 748.110585,763.285322 C736.223088,775.172819 720.13657,781.976842 702.985263,781.976842 L133.136842,781.976842 C115.985535,781.976842 99.8990171,775.172819 88.0115203,763.285322 C76.1240235,751.397825 69.32,735.311307 69.32,718.16 C69.32,701.008693 76.1240235,684.922175 88.0115203,673.034678 C99.8990171,661.147181 115.985535,654.343158 133.136842,654.343158 L702.985263,654.343158 Z M702.985263,664.343158 L133.136842,664.343158 C118.664961,664.343158 105.113312,670.075022 95.0825881,680.105746 C85.0518642,690.13647 79.32,703.688119 79.32,718.16 C79.32,732.631881 85.0518642,746.18353 95.0825881,756.214254 C105.113312,766.244978 118.664961,771.976842 133.136842,771.976842 L702.985263,771.976842 C717.457144,771.976842 731.008793,766.244978 741.039517,756.214254 C751.070241,746.18353 756.802105,732.631881 756.802105,718.16 C756.802105,703.688119 751.070241,690.13647 741.039517,680.105746 C731.008793,670.075022 717.457144,664.343158 702.985263,664.343158 Z" id="Rectangle" fill="#000000" fill-rule="nonzero"></path>
        <path d="M702.985263,631.023158 C751.109612,631.023158 790.122105,670.035651 790.122105,718.16 C790.122105,766.284349 751.109612,805.296842 702.985263,805.296842 L133.136842,805.296842 C85.0124931,805.296842 46,766.284349 46,718.16 C46,670.035651 85.0124931,631.023158 133.136842,631.023158 L702.985263,631.023158 Z M702.985263,641.023158 L133.136842,641.023158 C90.5353406,641.023158 56,675.558498 56,718.16 C56,760.761502 90.5353406,795.296842 133.136842,795.296842 L702.985263,795.296842 C745.586765,795.296842 780.122105,760.761502 780.122105,718.16 C780.122105,675.558498 745.586765,641.023158 702.985263,641.023158 Z" id="Rectangle" fill="#000000" fill-rule="nonzero"></path>
        <path d="M677.844231,42 C711.300473,42 741.589415,55.5376669 763.514297,77.425113 C785.439179,99.312559 799,129.549784 799,162.948901 L799,798.051099 C799,831.450216 785.439179,861.687441 763.514297,883.574887 C741.589415,905.462333 711.300473,919 677.844231,919 L669.155769,919 C635.699527,919 605.410585,905.462333 583.485703,883.574887 C561.560821,861.687441 548,831.450216 548,798.051099 L548,795 L703,795 C745.100666,795 779.309713,761.21196 779.989684,719.273336 L780,718 C780,675.474074 745.525926,641 703,641 L548,641 L548,162.948901 C548,129.549784 561.560821,99.312559 583.485703,77.425113 C605.410585,55.5376669 635.699527,42 669.155769,42 L677.844231,42 Z M789,731.215 L788.880047,731.997944 C782.180712,773.432993 746.236966,805 703,805 L558.215,805 L558.225741,805.171486 C559.931871,832.010839 571.243632,856.92565 589.931958,875.875235 L590.550727,876.49778 C611.268482,897.18016 639.261518,909 669.155769,909 L677.844231,909 C707.738482,909 735.731518,897.18016 756.449273,876.49778 C777.163756,855.818666 789,827.882424 789,798.051099 L789,731.215 Z M677.844231,52 L669.155769,52 C639.261518,52 611.268482,63.8198395 590.550727,84.5022201 C569.836244,105.181334 558,133.117576 558,162.948901 L558,631 L703,631 C746.243896,631 782.118779,662.550494 788.861078,703.947205 L789,704.845 L789,162.948901 C789,133.415889 777.399297,105.740248 757.068042,85.1247653 L756.449273,84.5022201 C735.731518,63.8198395 707.738482,52 677.844231,52 Z" id="Combined-Shape" fill="#000000" fill-rule="nonzero"></path>
        <path d="M677.844231,42 C711.300473,42 741.589415,55.5376669 763.514297,77.425113 C785.439179,99.312559 799,129.549784 799,162.948901 L799,507 L548,507 L548,162.948901 C548,129.549784 561.560821,99.312559 583.485703,77.425113 C605.410585,55.5376669 635.699527,42 669.155769,42 L677.844231,42 Z" id="pair" fill="#0074CC"></path>
        <path d="M677.844231,42 C711.300473,42 741.589415,55.5376669 763.514297,77.425113 C785.439179,99.312559 799,129.549784 799,162.948901 L799,507 L548,507 L548,162.948901 C548,129.549784 561.560821,99.312559 583.485703,77.425113 C605.410585,55.5376669 635.699527,42 669.155769,42 L677.844231,42 Z M677.844231,52 L669.155769,52 C639.261518,52 611.268482,63.8198395 590.550727,84.5022201 C569.836244,105.181334 558,133.117576 558,162.948901 L558,497 L789,497 L789,162.948901 C789,133.415889 777.399297,105.740248 757.068042,85.1247653 L756.449273,84.5022201 C735.731518,63.8198395 707.738482,52 677.844231,52 Z" id="Combined-Shape" fill="#000000" fill-rule="nonzero"></path>
        <path d="M673.094737,835.614737 C689.213957,835.614737 702.2,849.120222 702.2,865.684211 C702.2,882.248199 689.213957,895.753684 673.094737,895.753684 C656.975517,895.753684 643.989474,882.248199 643.989474,865.684211 C643.989474,849.120222 656.975517,835.614737 673.094737,835.614737 Z M673.094737,845.614737 C662.588018,845.614737 653.989474,854.557223 653.989474,865.684211 C653.989474,876.811198 662.588018,885.753684 673.094737,885.753684 C683.601455,885.753684 692.2,876.811198 692.2,865.684211 C692.2,854.557223 683.601455,845.614737 673.094737,845.614737 Z" id="Oval" fill="#000000" fill-rule="nonzero"></path>
        <path d="M677.5,853.5 L677.5,861 L685,861 L685,870 L677.499,870 L677.5,877.5 L668.5,877.5 L668.499,870 L661,870 L661,861 L668.5,861 L668.5,853.5 L677.5,853.5 Z" id="Combined-Shape" fill="#000000"></path>
    </g>
</svg>